<?xml version="1.0" encoding="UTF-8"?>
<svg id="Icons" xmlns="http://www.w3.org/2000/svg" version="1.1" viewBox="0 0 220 240">
  <!-- Generator: Adobe Illustrator 29.1.0, SVG Export Plug-In . SVG Version: 2.1.0 Build 142)  -->
  <defs>
    <style>
      .st0 {
        fill: none;
        stroke: #484751;
        stroke-linecap: square;
        stroke-miterlimit: 10;
        stroke-width: 7px;
      }
    </style>
  </defs>
  <g id="_x31_6">
    <path class="st0" d="M129.9,121.3l-1.5-13.5c10.5-9.1,17.5-25.1,17.5-40.8,0-23.8-3.4-43.1-35.9-43.1s-35.9,19.3-35.9,43.1,7,31.7,17.5,40.8l-1.5,13.5c-.5,4.8-4,8.8-8.6,10.1l-33.1,9.2c-8.7,2.4-14.7,10.3-14.7,19.3v56.3h152.7v-56.3c0-9-6-16.9-14.7-19.3l-33.1-9.2c-4.7-1.3-8.1-5.3-8.6-10.1Z"/>
    <path class="st0" d="M88.4,52.5s9.5,3.7,18.3,3.7,23.6-5,23.6-5c0,0,6.8,5.2,13.7,5"/>
    <path class="st0" d="M81.5,134l2.2,1.8c15.3,12.7,37.4,12.7,52.7,0l2.2-1.8"/>
  </g>
</svg>